<?xml version="1.0" standalone="no"?><!DOCTYPE svg PUBLIC "-//W3C//DTD SVG 1.1//EN" "http://www.w3.org/Graphics/SVG/1.1/DTD/svg11.dtd"><svg t="1524556431664" class="icon" style="" viewBox="0 0 1024 1024" version="1.1" xmlns="http://www.w3.org/2000/svg" p-id="7796" xmlns:xlink="http://www.w3.org/1999/xlink" width="200" height="200"><defs><style type="text/css"></style></defs><path d="M778.897699 357.164562c0 0-8.915044-25.083282-8.915044-39.09132 0-49.691749 40.274262-89.958848 89.955778-89.958848 49.684586 0 89.959871 40.266076 89.959871 89.958848 0 49.678446-40.275285 89.950661-89.959871 89.950661-3.5345 0-7.02295-0.204661-10.453073-0.599657L688.578648 592.124875c12.164041 15.682167 19.23611 35.808554 19.23611 57.761542 0 50.066279-40.590464 90.657766-90.664929 90.657766-50.073442 0-88.779999-35.885302-88.779999-85.950558l-115.476011-92.133374c-16.444531 17.425881-37.875632 26.425859-63.729463 26.425859-33.247218 0-62.290695-17.981537-77.93193-44.753273l-106.45966 40.508599 0 187.455369c0 32.032554 32.028461 28.257577 32.028461 28.257577l723.428364 0c0 0 30.141484 23.552415 30.141484 49.92404 0 26.376741-30.141484 40.503483-30.141484 40.503483l-754.514359 1.213641c-90.430592 0-89.491197-95.407953-89.491197-95.407953L76.224032 169.234379c0-28.257577 44.276413-32.958646 44.276413-32.958646 28.257577 0 44.272319 29.195949 44.272319 29.195949l0.942465 340.987115 98.001011-31.696909c12.062733-35.609009 30.688953-66.261123 85.449137-66.261123 49.808406 0 90.192162 38.496779 90.192162 88.308255l113.895003 86.481653c17.897625-26.376741 67.666122-24.076348 67.666122-24.076348L778.897699 357.164562z" p-id="7797" fill="#1296db"></path></svg>