<?xml version="1.0" standalone="no"?><!DOCTYPE svg PUBLIC "-//W3C//DTD SVG 1.1//EN" "http://www.w3.org/Graphics/SVG/1.1/DTD/svg11.dtd"><svg t="1523704230772" class="icon" style="" viewBox="0 0 1024 1024" version="1.1" xmlns="http://www.w3.org/2000/svg" p-id="1932" xmlns:xlink="http://www.w3.org/1999/xlink" width="200" height="200"><defs><style type="text/css"></style></defs><path d="M981.184 160.096C837.568 139.456 678.848 128 512 128c-166.848 0-325.568 11.456-469.184 32.096C15.264 267.84 0 386.848 0 512c0 125.152 15.264 244.16 42.816 351.904C186.432 884.544 345.152 896 512 896c166.848 0 325.568-11.456 469.184-32.096C1008.736 756.16 1024 637.152 1024 512 1024 386.848 1008.736 267.84 981.184 160.096zM384 704 384 320l320 192L384 704z" p-id="1933" fill="#8a8a8a"></path></svg>