<?xml version="1.0" standalone="no"?><!DOCTYPE svg PUBLIC "-//W3C//DTD SVG 1.1//EN" "http://www.w3.org/Graphics/SVG/1.1/DTD/svg11.dtd"><svg t="1524237349525" class="icon" style="" viewBox="0 0 1024 1024" version="1.1" xmlns="http://www.w3.org/2000/svg" p-id="1556" xmlns:xlink="http://www.w3.org/1999/xlink" width="200" height="200"><defs><style type="text/css"></style></defs><path d="M512 167.6l98.2 203 12.9 26.7 29.3 4.3 221.8 32.9L712.9 595l-20.5 20.4 4.8 28.6L735 869.1 538.5 763.6 512 749.4l-26.5 14.2L289 869.1 326.8 644l4.8-28.6-20.5-20.4-161.3-160.5 221.8-32.9 29.3-4.3 12.9-26.7 98.2-203m0-91.9c-10.2 0-20.4 5.4-25.6 16.3l-123 254.2L88.5 387c-23.4 3.5-32.8 32.9-15.8 49.8l198.9 197.9-47 279.5c-3.2 18.9 11.5 34.2 28.2 34.2 4.4 0 8.9-1.1 13.3-3.4L512 812.9l245.9 131.9c4.4 2.3 8.9 3.4 13.3 3.4 16.7 0 31.3-15.3 28.2-34.2l-47-279.5 198.9-197.9c17-16.9 7.6-46.3-15.8-49.8L660.6 346l-123-254c-5.2-10.9-15.4-16.3-25.6-16.3z" p-id="1557" fill="#d81e06"></path></svg>