<?xml version="1.0" standalone="no"?><!DOCTYPE svg PUBLIC "-//W3C//DTD SVG 1.1//EN" "http://www.w3.org/Graphics/SVG/1.1/DTD/svg11.dtd"><svg t="1524549873226" class="icon" style="" viewBox="0 0 1024 1024" version="1.1" xmlns="http://www.w3.org/2000/svg" p-id="1323" xmlns:xlink="http://www.w3.org/1999/xlink" width="200" height="200"><defs><style type="text/css"></style></defs><path d="M507.904 508.928m-503.296 0a503.296 503.296 0 1 0 1006.592 0 503.296 503.296 0 1 0-1006.592 0Z" fill="#FACC39" p-id="1324"></path><path d="M204.8 302.08h609.28v394.24H204.8z" fill="#00ADBB" p-id="1325"></path><path d="M348.16 532.48h51.2v138.24h-51.2zM419.84 471.04h46.08v199.68h-46.08zM481.28 496.64h51.2v174.08h-51.2zM547.84 440.32h51.2v230.4h-51.2zM614.4 399.36h56.32v271.36h-56.32z" fill="#5FCFD5" p-id="1326"></path><path d="M109.056 709.12V721.92s11.264 12.288 37.376 12.288h731.648s19.968-6.144 28.672-12.288v-12.288H109.056z" fill="#E6E6E6" p-id="1327"></path><path d="M197.632 282.624c0-0.512 0-0.512 0 0 0-0.512 0-0.512 0 0zM198.656 282.112h1.536-1.536z" fill="#929397" p-id="1328"></path><path d="M815.616 281.6h-473.6l29.184 25.6H803.84v378.88h-32.768l26.624 20.48h17.408c6.656 0 13.824-3.584 13.824-10.24v-401.408c0.512-7.168-6.656-13.312-13.312-13.312z" fill="#333333" p-id="1329"></path><path d="M197.632 282.112h1.024-1.024zM189.44 696.32v-401.92s-1.024-7.168 4.096-10.752c2.048-2.048 6.144-2.048 6.144-2.048h142.336l29.184 25.6H209.92v378.88h561.152l26.624 20.48H199.68s-10.24 1.536-10.24-10.24z" fill="#58585A" p-id="1330"></path></svg>